<svg xmlns="http://www.w3.org/2000/svg" 
width="1874" 
height="3373" 
viewBox="0 0 1874 3373" 
fill="none">

  <path d="M267.498 3372C277.505 3113.3 1513 3227.5 1813.5 2993C2063.5 2841 -200.797 1939.61 45.1802 2446.51C291.157 2953.41 1336.12 1892.92 790.996 1799.16C245.877 1705.39 1616.86 1511.44 1766.49 1428C2110.28 1236.3 1267 924.5 962.497 1036.43C193.975 1341.75 39.8262 861.634 224.996 652C410.166 442.366 1402.31 796.492 1409.18 652C1416.05 507.508 1077.68 287.021 1077.68 438.52C1077.68 590.02 1347.87 665.5 1442.18 545C1536.49 424.5 1471.81 228.999 1828.99 22.5" stroke="#DBC7E6" stroke-width="52"/>
</svg>